<svg width="203" height="26" viewBox="0 0 203 26" fill="none" xmlns="http://www.w3.org/2000/svg">
<path d="M202.333 5.3335C202.333 2.38798 199.946 0.000162125 197 0.000162125C194.054 0.000162125 191.667 2.38798 191.667 5.3335C191.667 8.27901 194.054 10.6668 197 10.6668C199.946 10.6668 202.333 8.27901 202.333 5.3335ZM197 5.3335H196C196 6.53691 195.882 7.71179 195.657 8.84751L196.638 9.04157L197.619 9.23564C197.869 7.97279 198 6.66792 198 5.3335H197ZM193.8 15.8902L192.969 15.3339C191.654 17.2972 189.964 18.9878 188 20.3023L188.557 21.1332L189.113 21.9642C191.294 20.5043 193.171 18.6271 194.631 16.4465L193.8 15.8902ZM181.708 23.9718L181.514 22.9909C180.378 23.2155 179.203 23.3335 178 23.3335V24.3335V25.3335C179.334 25.3335 180.639 25.2027 181.902 24.9528L181.708 23.9718ZM178 24.3335V23.3335H175.033V24.3335V25.3335H178V24.3335ZM169.1 24.3335V23.3335H163.167V24.3335V25.3335H169.1V24.3335ZM157.233 24.3335V23.3335L151.3 23.3335V24.3335V25.3335L157.233 25.3335V24.3335ZM145.367 24.3335V23.3335H139.433V24.3335V25.3335H145.367V24.3335ZM133.5 24.3335V23.3335H127.567V24.3335V25.3335H133.5V24.3335ZM121.633 24.3335V23.3335H115.7V24.3335V25.3335H121.633V24.3335ZM109.767 24.3335V23.3335H103.833V24.3335V25.3335H109.767V24.3335ZM97.9 24.3335V23.3335L91.9667 23.3335V24.3335V25.3335L97.9 25.3335V24.3335ZM86.0333 24.3335V23.3335H80.1V24.3335V25.3335H86.0333V24.3335ZM74.1667 24.3335V23.3335H68.2333V24.3335V25.3335H74.1667V24.3335ZM62.3 24.3335V23.3335L56.3667 23.3335V24.3335V25.3335H62.3V24.3335ZM50.4333 24.3335V23.3335H44.5V24.3335V25.3335H50.4333V24.3335ZM38.5667 24.3335V23.3335L32.6333 23.3335V24.3335V25.3335L38.5667 25.3335V24.3335ZM26.7 24.3335V23.3335H20.7666V24.3335V25.3335H26.7V24.3335ZM14.8333 24.3335V23.3335H8.89998V24.3335V25.3335H14.8333V24.3335ZM2.96664 24.3335V23.3335L0 23.3335V24.3335V25.3335H2.96664V24.3335Z" fill="url(#paint0_linear_2052_11779)"/>
<defs>
<linearGradient id="paint0_linear_2052_11779" x1="197" y1="14.8335" x2="0" y2="14.8335" gradientUnits="userSpaceOnUse">
<stop stop-color="#0D5A50"/>
<stop offset="1" stop-color="white"/>
</linearGradient>
</defs>
</svg>
