<svg width="203" height="26" viewBox="0 0 203 26" fill="none" xmlns="http://www.w3.org/2000/svg">
<path d="M-8.15392e-05 5.3335C-8.15392e-05 2.38798 2.38773 0.000162125 5.33325 0.000162125C8.27877 0.000162125 10.6666 2.38798 10.6666 5.3335C10.6666 8.27901 8.27877 10.6668 5.33325 10.6668C2.38773 10.6668 -8.15392e-05 8.27901 -8.15392e-05 5.3335ZM5.33325 5.3335H6.33325C6.33325 6.53691 6.45121 7.71179 6.67589 8.84751L5.6949 9.04157L4.71391 9.23564C4.46408 7.97279 4.33325 6.66792 4.33325 5.3335H5.33325ZM8.53351 15.8902L9.36448 15.3339C10.6789 17.2972 12.3695 18.9878 14.3329 20.3023L13.7766 21.1332L13.2202 21.9642C11.0396 20.5043 9.16241 18.6271 7.70254 16.4465L8.53351 15.8902ZM20.6252 23.9718L20.8192 22.9909C21.955 23.2155 23.1298 23.3335 24.3333 23.3335V24.3335V25.3335C22.9988 25.3335 21.694 25.2027 20.4311 24.9528L20.6252 23.9718ZM24.3333 24.3335V23.3335H27.2999V24.3335V25.3335H24.3333V24.3335ZM33.2333 24.3335V23.3335H39.1666V24.3335V25.3335H33.2333V24.3335ZM45.0999 24.3335V23.3335L51.0333 23.3335V24.3335V25.3335L45.0999 25.3335V24.3335ZM56.9666 24.3335V23.3335H62.8999V24.3335V25.3335H56.9666V24.3335ZM68.8333 24.3335V23.3335H74.7666V24.3335V25.3335H68.8333V24.3335ZM80.6999 24.3335V23.3335H86.6333V24.3335V25.3335H80.6999V24.3335ZM92.5666 24.3335V23.3335H98.4999V24.3335V25.3335H92.5666V24.3335ZM104.433 24.3335V23.3335L110.367 23.3335V24.3335V25.3335L104.433 25.3335V24.3335ZM116.3 24.3335V23.3335H122.233V24.3335V25.3335H116.3V24.3335ZM128.167 24.3335V23.3335H134.1V24.3335V25.3335H128.167V24.3335ZM140.033 24.3335V23.3335L145.967 23.3335V24.3335V25.3335H140.033V24.3335ZM151.9 24.3335V23.3335H157.833V24.3335V25.3335H151.9V24.3335ZM163.767 24.3335V23.3335L169.7 23.3335V24.3335V25.3335L163.767 25.3335V24.3335ZM175.633 24.3335V23.3335H181.567V24.3335V25.3335H175.633V24.3335ZM187.5 24.3335V23.3335H193.433V24.3335V25.3335H187.5V24.3335ZM199.367 24.3335V23.3335L202.333 23.3335V24.3335V25.3335H199.367V24.3335Z" fill="url(#paint0_linear_2052_11777)"/>
<defs>
<linearGradient id="paint0_linear_2052_11777" x1="5.33325" y1="14.8335" x2="202.333" y2="14.8335" gradientUnits="userSpaceOnUse">
<stop stop-color="#0DB38B"/>
<stop offset="1" stop-color="white"/>
</linearGradient>
</defs>
</svg>
