<svg width="15" height="15" viewBox="0 0 15 15" fill="none" xmlns="http://www.w3.org/2000/svg">
<path d="M9.69639 1.47037C8.97409 1.30093 8.237 1.21622 7.5 1.21622C7.16417 1.21622 6.89192 0.943958 6.89192 0.608108C6.89192 0.272258 7.16417 0 7.5 0C8.33026 0 9.16051 0.0954333 9.97413 0.286292C12.3258 0.837925 14.1621 2.67416 14.7137 5.02587C15.0954 6.65317 15.0954 8.34683 14.7137 9.97417C14.1621 12.3258 12.3258 14.1621 9.97413 14.7137C8.34684 15.0954 6.65317 15.0954 5.02584 14.7137C2.67417 14.1621 0.837922 12.3258 0.286256 9.97417C0.0954218 9.16042 5.72205e-06 8.33025 5.72205e-06 7.5C5.72205e-06 7.16417 0.272255 6.89183 0.608088 6.89183C0.943922 6.89183 1.21626 7.16417 1.21626 7.5C1.21626 8.237 1.30092 8.97408 1.47034 9.69642C1.91651 11.5984 3.40159 13.0835 5.30359 13.5297C6.74825 13.8685 8.25176 13.8685 9.69639 13.5297C11.5984 13.0835 13.0835 11.5984 13.5296 9.69642C13.8685 8.25175 13.8685 6.74825 13.5296 5.30362C13.0835 3.40162 11.5984 1.91652 9.69639 1.47037Z" fill="black"/>
<path d="M3.85231 0C4.18814 0 4.46048 0.272258 4.46048 0.608108C4.46048 0.943958 4.18814 1.21622 3.85231 1.21622H2.07723L5.90398 5.04297C6.14139 5.28046 6.14139 5.66549 5.90398 5.903C5.66648 6.14042 5.28139 6.14042 5.04398 5.903L1.21723 2.07621V3.85135C1.21723 4.1872 0.944893 4.45946 0.60906 4.45946C0.273227 4.45946 0.000976562 4.1872 0.000976562 3.85135V0.608108C0.000976562 0.272258 0.273227 0 0.60906 0H3.85231Z" fill="black"/>
</svg>
