<svg width="36" height="20" viewBox="0 0 36 20" fill="none" xmlns="http://www.w3.org/2000/svg">
<g opacity="0.25">
<path d="M7.14472 6.85348C6.94946 6.65821 6.63286 6.65821 6.43761 6.85348L3.99391 9.29958C3.60371 9.69018 3.60386 10.3231 3.99421 10.7135L6.43941 13.1586C6.63466 13.3539 6.95126 13.3539 7.14652 13.1586C7.34178 12.9634 7.34178 12.6468 7.14652 12.4515L5.05371 10.3587C4.85841 10.1635 4.85846 9.84688 5.05371 9.65163L7.14472 7.56059C7.33998 7.36532 7.33998 7.04874 7.14472 6.85348Z" fill="white"/>
</g>
<g opacity="0.45">
<path d="M15.525 5.80464C15.2646 5.54429 14.8425 5.54429 14.5822 5.80464L11.3239 9.0661C10.8036 9.5869 10.8038 10.4308 11.3243 10.9513L14.5846 14.2115C14.8449 14.4719 15.267 14.4719 15.5274 14.2115C15.7877 13.9512 15.7877 13.529 15.5274 13.2687L12.737 10.4783C12.4766 10.218 12.4766 9.79583 12.737 9.5355L15.525 6.74745C15.7853 6.4871 15.7853 6.06499 15.525 5.80464Z" fill="white"/>
</g>
<g opacity="0.85">
<path d="M27.9092 4.7558C27.5837 4.43036 27.0561 4.43036 26.7307 4.7558L22.6578 8.83263C22.0075 9.48363 22.0077 10.5385 22.6583 11.1891L26.7337 15.2644C27.0591 15.5899 27.5867 15.5899 27.9122 15.2644C28.2376 14.939 28.2376 14.4113 27.9122 14.0859L24.4242 10.5979C24.0987 10.2725 24.0987 9.74479 24.4242 9.41938L27.9092 5.93431C28.2346 5.60887 28.2346 5.08123 27.9092 4.7558Z" fill="white"/>
</g>
</svg>
