<svg width="36" height="20" viewBox="0 0 36 20" fill="none" xmlns="http://www.w3.org/2000/svg">
<g opacity="0.25">
<path d="M28.8553 6.85348C29.0505 6.65821 29.3671 6.65821 29.5624 6.85348L32.0061 9.29958C32.3963 9.69018 32.3961 10.3231 32.0058 10.7135L29.5606 13.1586C29.3653 13.3539 29.0487 13.3539 28.8535 13.1586C28.6582 12.9634 28.6582 12.6468 28.8535 12.4515L30.9463 10.3587C31.1416 10.1635 31.1415 9.84688 30.9463 9.65163L28.8553 7.56059C28.66 7.36532 28.66 7.04874 28.8553 6.85348Z" fill="white"/>
</g>
<g opacity="0.45">
<path d="M20.475 5.80464C20.7354 5.54429 21.1575 5.54429 21.4178 5.80464L24.6761 9.0661C25.1964 9.5869 25.1962 10.4308 24.6757 10.9513L21.4154 14.2115C21.1551 14.4719 20.733 14.4719 20.4726 14.2115C20.2123 13.9512 20.2123 13.529 20.4726 13.2687L23.263 10.4783C23.5234 10.218 23.5234 9.79583 23.263 9.5355L20.475 6.74745C20.2147 6.4871 20.2147 6.06499 20.475 5.80464Z" fill="white"/>
</g>
<g opacity="0.85">
<path d="M8.09084 4.7558C8.41626 4.43036 8.94393 4.43036 9.26935 4.7558L13.3422 8.83263C13.9925 9.48363 13.9923 10.5385 13.3417 11.1891L9.26635 15.2644C8.94093 15.5899 8.41326 15.5899 8.08783 15.2644C7.76239 14.939 7.76239 14.4113 8.08783 14.0859L11.5758 10.5979C11.9013 10.2725 11.9013 9.74479 11.5758 9.41938L8.09084 5.93431C7.7654 5.60887 7.7654 5.08123 8.09084 4.7558Z" fill="white"/>
</g>
</svg>
