<svg width="17" height="16" viewBox="0 0 17 16" fill="none" xmlns="http://www.w3.org/2000/svg">
<path fill-rule="evenodd" clip-rule="evenodd" d="M14.9347 2.91665C15.1875 3.29498 15.1875 3.82165 15.1875 4.875V14.4375H15.5625C15.8731 14.4375 16.125 14.6893 16.125 15C16.125 15.3106 15.8731 15.5625 15.5625 15.5625H0.5625C0.251842 15.5625 0 15.3106 0 15C0 14.6893 0.251842 14.4375 0.5625 14.4375H0.9375V4.875C0.9375 3.82165 0.9375 3.29498 1.19029 2.91665C1.29973 2.75286 1.44036 2.61223 1.60414 2.50279C1.93506 2.28168 2.37946 2.25397 3.19052 2.25049C3.18744 2.46904 3.18747 2.69741 3.18749 2.93287L3.1875 3V3.9375H2.4375C2.12684 3.9375 1.875 4.18934 1.875 4.5C1.875 4.81066 2.12684 5.0625 2.4375 5.0625H3.1875V6.1875H2.4375C2.12684 6.1875 1.875 6.43935 1.875 6.75C1.875 7.06065 2.12684 7.3125 2.4375 7.3125H3.1875V8.4375H2.4375C2.12684 8.4375 1.875 8.68935 1.875 9C1.875 9.31065 2.12684 9.5625 2.4375 9.5625H3.1875V14.4375H4.3125V3C4.3125 1.58578 4.3125 0.878677 4.75184 0.439342C5.19118 -4.47035e-08 5.89828 0 7.3125 0H8.8125C10.2267 0 10.9338 -4.47035e-08 11.3731 0.439342C11.8125 0.878677 11.8125 1.58578 11.8125 3V14.4375H12.9375V9.5625H13.6875C13.9981 9.5625 14.25 9.31065 14.25 9C14.25 8.68935 13.9981 8.4375 13.6875 8.4375H12.9375V7.3125H13.6875C13.9981 7.3125 14.25 7.06065 14.25 6.75C14.25 6.43935 13.9981 6.1875 13.6875 6.1875H12.9375V5.0625H13.6875C13.9981 5.0625 14.25 4.81066 14.25 4.5C14.25 4.18934 13.9981 3.9375 13.6875 3.9375H12.9375V3V2.93288C12.9375 2.69741 12.9376 2.46904 12.9345 2.25049C13.7455 2.25397 14.1899 2.28168 14.5208 2.50279C14.6846 2.61223 14.8252 2.75286 14.9347 2.91665ZM8.625 12.75C8.625 12.4393 8.37315 12.1875 8.0625 12.1875C7.75185 12.1875 7.5 12.4393 7.5 12.75V14.4375H8.625V12.75ZM6 9.75C6 9.43935 6.25184 9.1875 6.5625 9.1875H9.5625C9.87315 9.1875 10.125 9.43935 10.125 9.75C10.125 10.0606 9.87315 10.3125 9.5625 10.3125H6.5625C6.25184 10.3125 6 10.0606 6 9.75ZM6.5625 6.9375C6.25184 6.9375 6 7.18935 6 7.5C6 7.81065 6.25184 8.0625 6.5625 8.0625H9.5625C9.87315 8.0625 10.125 7.81065 10.125 7.5C10.125 7.18935 9.87315 6.9375 9.5625 6.9375H6.5625ZM6.1875 3.75C6.1875 2.61091 7.1109 1.6875 8.25 1.6875C9.3891 1.6875 10.3125 2.61091 10.3125 3.75C10.3125 4.88908 9.3891 5.8125 8.25 5.8125C7.1109 5.8125 6.1875 4.88908 6.1875 3.75ZM7.3125 3.75C7.3125 3.23223 7.7322 2.8125 8.25 2.8125C8.7678 2.8125 9.1875 3.23223 9.1875 3.75C9.1875 4.26777 8.7678 4.6875 8.25 4.6875C7.7322 4.6875 7.3125 4.26777 7.3125 3.75Z" fill="url(#paint0_linear_2130_108589)"/>
<defs>
<linearGradient id="paint0_linear_2130_108589" x1="8.0625" y1="0" x2="8.0625" y2="15.5625" gradientUnits="userSpaceOnUse">
<stop stop-color="#0D5A50"/>
<stop offset="1" stop-color="#009772"/>
</linearGradient>
</defs>
</svg>
