<svg width="20" height="20" viewBox="0 0 20 20" fill="none" xmlns="http://www.w3.org/2000/svg">
<path d="M4.85857 10.0297C7.62406 7.04478 12.0845 7.04478 14.8499 10.0297C15.1079 10.3083 15.543 10.3249 15.8215 10.0668C16.1 9.80879 16.1166 9.37374 15.8586 9.09526C12.549 5.52293 7.15958 5.52293 3.84993 9.09526C3.59188 9.37374 3.60848 9.80879 3.88701 10.0668C4.16554 10.3249 4.60052 10.3083 4.85857 10.0297Z" fill="white"/>
<path d="M6.69183 12.0089C8.44477 10.1168 11.2635 10.1168 13.0166 12.0089C13.2746 12.2875 13.7096 12.3041 13.988 12.046C14.2666 11.788 14.2832 11.3529 14.0252 11.0745C11.728 8.59497 7.98031 8.59497 5.68318 11.0745C5.42513 11.3529 5.44173 11.788 5.72026 12.046C5.99879 12.3041 6.43378 12.2875 6.69183 12.0089Z" fill="white"/>
<path d="M8.52531 13.988C9.2658 13.1888 10.4429 13.1888 11.1834 13.988C11.4414 14.2666 11.8764 14.2832 12.1549 14.0252C12.4334 13.767 12.45 13.3321 12.192 13.0536C10.9074 11.667 8.80132 11.667 7.51668 13.0536C7.25863 13.3321 7.27523 13.767 7.55376 14.0252C7.83229 14.2832 8.26727 14.2666 8.52531 13.988Z" fill="white"/>
<path fill-rule="evenodd" clip-rule="evenodd" d="M9.85417 0C9.18949 0 8.58312 0.182517 7.91934 0.492342C7.2768 0.792257 6.53375 1.2349 5.60251 1.78964L4.2682 2.58448C3.24235 3.19555 2.42491 3.6825 1.80597 4.14814C1.16705 4.62883 0.687493 5.1238 0.374983 5.77566C0.0623265 6.42784 -0.0224193 7.1104 0.00475985 7.90702C0.0310773 8.67808 0.165965 9.61556 0.335099 10.7909L0.603096 12.6534C0.820703 14.1658 0.993376 15.3659 1.25136 16.3004C1.5173 17.2635 1.89462 18.028 2.57551 18.6143C3.25586 19.2001 4.06986 19.4621 5.06581 19.5871C6.03308 19.7083 7.25341 19.7083 8.79294 19.7083H10.9154C12.4549 19.7083 13.6753 19.7083 14.6426 19.5871C15.6385 19.4621 16.4525 19.2001 17.1329 18.6143C17.8137 18.028 18.1911 17.2635 18.457 16.3004C18.7149 15.366 18.8876 14.1658 19.1053 12.6534L19.3732 10.7909C19.5424 9.61547 19.6773 8.67808 19.7036 7.90702C19.7308 7.1104 19.646 6.42784 19.3333 5.77566C19.0208 5.1238 18.5413 4.62883 17.9024 4.14814C17.2835 3.6825 16.466 3.19555 15.4402 2.58448L14.1059 1.78964C13.1746 1.2349 12.4316 0.792257 11.789 0.492342C11.1252 0.182517 10.5188 0 9.85417 0ZM6.27512 2.98944C7.2445 2.41199 7.92846 2.00549 8.50089 1.7383C9.05924 1.47769 9.46074 1.375 9.85417 1.375C10.2477 1.375 10.6491 1.47769 11.2074 1.7383C11.7799 2.00549 12.4638 2.41199 13.4332 2.98944L14.7027 3.74564C15.77 4.38142 16.5231 4.83114 17.0758 5.24691C17.6151 5.65273 17.9106 5.98853 18.0934 6.37007C18.2762 6.7513 18.3522 7.18976 18.3294 7.86013C18.3059 8.54746 18.1826 9.41078 18.0066 10.6343L17.7511 12.4102C17.5251 13.9806 17.3636 15.094 17.1316 15.9344C16.9048 16.7557 16.6319 17.2311 16.2356 17.5723C15.8388 17.9141 15.3245 18.1158 14.4714 18.2228C13.5997 18.3321 12.4656 18.3333 10.8681 18.3333H8.84024C7.24281 18.3333 6.10871 18.3321 5.23692 18.2228C4.38392 18.1158 3.86952 17.9141 3.47271 17.5723C3.07646 17.2311 2.80352 16.7557 2.57677 15.9344C2.34475 15.094 2.18323 13.9806 1.95727 12.4102L1.70173 10.6342C1.52567 9.41078 1.40242 8.54746 1.37896 7.86013C1.35609 7.18976 1.4321 6.7513 1.61487 6.37007C1.79778 5.98853 2.09318 5.65273 2.63261 5.24691C3.18525 4.83114 3.9384 4.38142 5.00568 3.74564L6.27512 2.98944Z" fill="white"/>
</svg>
