<svg width="20" height="22" viewBox="0 0 20 22" fill="none" xmlns="http://www.w3.org/2000/svg">
<path d="M18.75 5.75V15.75C18.75 18.75 17.25 20.75 13.75 20.75H5.75C2.25 20.75 0.75 18.75 0.75 15.75V5.75C0.75 2.75 2.25 0.75 5.75 0.75H13.75C17.25 0.75 18.75 2.75 18.75 5.75Z" stroke="#0D5A50" stroke-width="1.5" stroke-miterlimit="10" stroke-linecap="round" stroke-linejoin="round"/>
<path d="M13.25 0.75V8.60999C13.25 9.05 12.73 9.27 12.41 8.98L10.09 6.84003C9.9 6.66003 9.6 6.66003 9.41 6.84003L7.09003 8.98C6.77003 9.27 6.25 9.05 6.25 8.60999V0.75H13.25Z" stroke="#0D5A50" stroke-width="1.5" stroke-miterlimit="10" stroke-linecap="round" stroke-linejoin="round"/>
<path d="M11 12.75H15.25" stroke="#0D5A50" stroke-width="1.5" stroke-miterlimit="10" stroke-linecap="round" stroke-linejoin="round"/>
<path d="M6.75 16.75H15.25" stroke="#0D5A50" stroke-width="1.5" stroke-miterlimit="10" stroke-linecap="round" stroke-linejoin="round"/>
</svg>
