<svg width="52" height="58" viewBox="0 0 52 58" fill="none" xmlns="http://www.w3.org/2000/svg">
<path d="M50 12.6667V44.6667C50 47.4957 48.8763 50.2088 46.8757 52.2091C44.8755 54.2096 42.1624 55.3333 39.3333 55.3333H12.6667C9.83768 55.3333 7.12475 54.2096 5.12435 52.2091C3.12397 50.2088 2 47.4957 2 44.6667V36.3733C2 27.2571 5.62163 18.5141 12.0679 12.0679C18.5141 5.62163 27.2571 2 36.3733 2H39.3333C42.1624 2 44.8755 3.12397 46.8757 5.12435C48.8763 7.12475 50 9.83768 50 12.6667Z" stroke="#0DB38B" stroke-width="4" stroke-linecap="round" stroke-linejoin="round"/>
<path d="M2 36.8267C2 23.0667 16.6668 34.1597 25.28 25.5197C33.8933 16.8799 22.88 2 36.6133 2" stroke="#0DB38B" stroke-width="4" stroke-linecap="round" stroke-linejoin="round"/>
<path d="M12.6665 39.332H39.3332" stroke="#0DB38B" stroke-width="4" stroke-linecap="round" stroke-linejoin="round"/>
<path d="M34 28.668H39.3333" stroke="#0DB38B" stroke-width="4" stroke-linecap="round" stroke-linejoin="round"/>
<path d="M36.6665 18H39.3332" stroke="#0DB38B" stroke-width="4" stroke-linecap="round" stroke-linejoin="round"/>
</svg>
