<svg width="55" height="60" viewBox="0 0 55 60" fill="none" xmlns="http://www.w3.org/2000/svg">
<path d="M24.0793 55.3333H12.6925C9.86356 55.3333 7.15044 54.2093 5.15007 52.2091C3.14967 50.2085 2.02588 47.4957 2.02588 44.6667V36.3733C2.02588 27.2568 5.64732 18.5139 12.0936 12.0677C18.5398 5.62147 27.2828 2 36.3993 2H39.3593C42.1881 2 44.9014 3.12379 46.9017 5.12419C48.902 7.12459 50.026 9.83768 50.026 12.6667V27.1731" stroke="#0DB38B" stroke-width="4" stroke-linecap="round" stroke-linejoin="round"/>
<path d="M2 36.8267C2 23.0667 16.6668 34.1597 25.28 25.5197C33.8933 16.8799 22.88 2 36.6133 2" stroke="#0DB38B" stroke-width="4" stroke-linecap="round" stroke-linejoin="round"/>
<path d="M2 36.8267C2 23.0667 16.6668 34.1597 25.28 25.5197C33.8933 16.8799 22.88 2 36.6133 2" stroke="#0DB38B" stroke-width="4" stroke-linecap="round" stroke-linejoin="round"/>
<path d="M42.0002 37.707L45.7602 43.7604L52.6668 45.467L48.0802 50.907L48.5868 58.0004L42.0002 55.3337L35.4135 58.0004L35.9202 50.907L31.3335 45.467L38.2402 43.7604L42.0002 37.707Z" stroke="#0DB38B" stroke-width="4" stroke-linecap="round" stroke-linejoin="round"/>
</svg>
