<svg width="26" height="24" viewBox="0 0 26 24" fill="none" xmlns="http://www.w3.org/2000/svg">
<path d="M12.6667 22H5.66667C4.42899 22 3.24208 21.5082 2.3669 20.6331C1.49174 19.7579 1 18.571 1 17.3333V5.66667C1 4.42898 1.49174 3.24193 2.3669 2.36676C3.24208 1.49159 4.42899 1 5.66667 1H8C8.81439 1.00491 9.61338 1.22285 10.3175 1.63218C11.0216 2.04152 11.6062 2.62802 12.0133 3.33333C12.4298 4.04074 13.0231 4.62772 13.7349 5.03676C14.4467 5.44582 15.2525 5.66291 16.0733 5.66667H19.6667C20.9044 5.66667 22.0914 6.15825 22.9665 7.03343C23.8417 7.90859 24.3333 9.09565 24.3333 10.3333V11.5" stroke="white" stroke-width="2" stroke-linecap="round" stroke-linejoin="round"/>
<path d="M19.6667 13.4844L21.3117 16.121L24.3333 16.8677L22.3267 19.2477L22.5483 22.351L19.6667 21.1844L16.785 22.351L17.0067 19.2477L15 16.8677L18.0217 16.121L19.6667 13.4844Z" stroke="white" stroke-width="2" stroke-linecap="round" stroke-linejoin="round"/>
</svg>
