<svg width="20" height="20" viewBox="0 0 20 20" fill="none" xmlns="http://www.w3.org/2000/svg">
<path d="M1.08373 10.7947C0.735908 8.3774 0.561998 7.16877 1.05742 6.13537C1.55284 5.10197 2.60734 4.47381 4.71633 3.21749L5.98577 2.4613C7.90095 1.32043 8.85856 0.75 9.91666 0.75C10.9748 0.75 11.9324 1.32043 13.8475 2.4613L15.117 3.21749C17.226 4.47381 18.2805 5.10197 18.7759 6.13537C19.2713 7.16877 19.0974 8.3774 18.7496 10.7947L18.4941 12.5706C18.0472 15.6758 17.8238 17.2284 16.7467 18.1558C15.6696 19.0833 14.0899 19.0833 10.9306 19.0833H8.90274C5.74342 19.0833 4.16375 19.0833 3.08661 18.1558C2.00946 17.2284 1.78606 15.6758 1.33927 12.5706L1.08373 10.7947Z" stroke="white" stroke-width="1.5"/>
<path d="M7.16675 13.584C7.94626 14.1618 8.8943 14.5007 9.91675 14.5007C10.9392 14.5007 11.8872 14.1618 12.6667 13.584" stroke="white" stroke-width="1.5" stroke-linecap="round"/>
</svg>
