<svg width="19" height="19" viewBox="0 0 19 19" fill="none" xmlns="http://www.w3.org/2000/svg">
<path d="M3.02374 12.5308C1.73579 11.2428 1.09182 10.5988 0.852202 9.76334C0.612577 8.92784 0.81736 8.04042 1.22693 6.26563L1.46312 5.24214C1.80769 3.74901 1.97998 3.00244 2.4912 2.4912C3.00244 1.97998 3.74901 1.80769 5.24214 1.46312L6.26563 1.22693C8.04042 0.81736 8.92784 0.612577 9.76334 0.852202C10.5988 1.09182 11.2428 1.73579 12.5308 3.02374L14.0554 4.54844C16.2963 6.78926 17.4167 7.90967 17.4167 9.30192C17.4167 10.6942 16.2963 11.8146 14.0554 14.0554C11.8146 16.2963 10.6942 17.4167 9.30192 17.4167C7.90967 17.4167 6.78926 16.2963 4.54844 14.0554L3.02374 12.5308Z" stroke="black" stroke-width="1.5"/>
<path d="M7.43446 7.66093C8.08533 7.01006 8.08533 5.95478 7.43446 5.30391C6.78359 4.65304 5.72831 4.65304 5.07744 5.30391C4.42656 5.95478 4.42656 7.01006 5.07744 7.66093C5.72831 8.31181 6.78359 8.31181 7.43446 7.66093Z" stroke="black" stroke-width="1.5"/>
<path d="M8.70142 14.4996L14.5173 8.68359" stroke="black" stroke-width="1.5" stroke-linecap="round"/>
</svg>
