<svg width="40" height="56" viewBox="0 0 40 56" fill="none" xmlns="http://www.w3.org/2000/svg">
<path d="M37.7715 19.8445C37.7717 17.4651 37.2984 15.1094 36.3786 12.915C35.4587 10.7206 34.1114 8.73137 32.4147 7.06325C30.7179 5.39515 28.706 4.08164 26.4962 3.19936C24.2867 2.31706 21.9233 1.88373 19.5443 1.92451C14.9772 2.06032 10.6287 3.91112 7.36485 7.10856C4.10098 10.306 2.16108 14.6156 1.93143 19.1789C1.82227 22.224 2.49135 25.2466 3.87549 27.9612C5.25963 30.6756 7.31311 32.9924 9.8418 34.6925C10.5545 35.1558 11.1406 35.7892 11.5473 36.5354C11.954 37.2819 12.1685 38.1177 12.1714 38.9677V42.8845H27.5315V38.9677C27.5315 38.12 27.7421 37.2857 28.1443 36.5395C28.5465 35.7933 29.1276 35.1586 29.8355 34.6925C32.2731 33.0569 34.2719 30.8473 35.6556 28.2584C37.0396 25.6695 37.7661 22.78 37.7715 19.8445Z" stroke="#0DB38B" stroke-width="3.84" stroke-linecap="round" stroke-linejoin="round"/>
<path d="M27.5299 50.5898C25.3142 52.2515 22.6196 53.1498 19.8499 53.1498C17.0803 53.1498 14.3856 52.2515 12.1699 50.5898" stroke="#0DB38B" stroke-width="3.84" stroke-linecap="round" stroke-linejoin="round"/>
<path d="M19.8246 11.168L15.575 18.2847C15.3825 18.5967 15.2773 18.9546 15.2704 19.3211C15.2635 19.6876 15.3549 20.0492 15.5353 20.3683C15.7158 20.6874 15.9785 20.9521 16.2962 21.135C16.6139 21.3179 16.9748 21.4122 17.3414 21.408H22.4614C22.8239 21.4066 23.1805 21.5016 23.4946 21.6831C23.8085 21.8647 24.0686 22.1264 24.2483 22.4414C24.428 22.7566 24.5207 23.1137 24.5171 23.4762C24.5135 23.8389 24.4137 24.194 24.2278 24.5055L19.927 31.6479" stroke="#0DB38B" stroke-width="3.84" stroke-linecap="round" stroke-linejoin="round"/>
</svg>
