<svg width="25" height="23" viewBox="0 0 25 23" fill="none" xmlns="http://www.w3.org/2000/svg">
<path d="M8.49658 18.6741V12.4805" stroke="white" stroke-width="2" stroke-linecap="round" stroke-linejoin="round"/>
<path d="M1.0056 11.1133C0.977789 10.6057 1.05378 10.0976 1.22894 9.62028C1.40408 9.14282 1.6747 8.70624 2.02427 8.33698C2.37386 7.96773 2.79505 7.67357 3.26211 7.47257C3.72918 7.27158 4.23233 7.16797 4.74081 7.16797C5.24929 7.16797 5.75243 7.27158 6.21949 7.47257C6.68656 7.67357 7.10775 7.96773 7.45733 8.33698C7.8069 8.70624 8.07754 9.14282 8.25269 9.62028C8.42784 10.0976 8.50381 10.6057 8.476 11.1133V17.4189C8.50381 17.9266 8.42784 18.4348 8.25269 18.9121C8.07754 19.3895 7.8069 19.8261 7.45733 20.1953C7.10775 20.5646 6.68656 20.8587 6.21949 21.0597C5.75243 21.2607 5.24929 21.3644 4.74081 21.3644C4.23233 21.3644 3.72918 21.2607 3.26211 21.0597C2.79505 20.8587 2.37386 20.5646 2.02427 20.1953C1.6747 19.8261 1.40408 19.3895 1.22894 18.9121C1.05378 18.4348 0.977789 17.9266 1.0056 17.4189V11.1133Z" stroke="white" stroke-width="2" stroke-linecap="round" stroke-linejoin="round"/>
<path d="M8.49665 17.4192C8.4937 17.9119 8.58783 18.4003 8.77366 18.8567C8.9595 19.313 9.2334 19.7283 9.57972 20.0789C9.92604 20.4293 10.338 20.7082 10.7921 20.8994C11.2462 21.0907 11.7335 21.1907 12.2263 21.1936H16.8407C17.9166 21.1928 18.9633 20.843 19.8236 20.1968C20.6839 19.5505 21.3114 18.6427 21.6119 17.6096L23.2919 11.92C23.4256 11.5418 23.4671 11.1371 23.413 10.7396C23.3588 10.3421 23.2105 9.96335 22.9805 9.63474C22.7505 9.30613 22.4453 9.03711 22.0904 8.85018C21.7354 8.66325 21.341 8.5638 20.9399 8.55999H14.7575V2.64638C14.7589 2.43163 14.7181 2.21875 14.6373 2.01979C14.5565 1.82084 14.4373 1.63974 14.2864 1.48686C14.1357 1.33397 13.9562 1.21226 13.7583 1.12872C13.5606 1.04519 13.3482 1.00147 13.1335 1C12.7801 1.0016 12.437 1.1184 12.1561 1.33264C11.8751 1.54688 11.6717 1.8469 11.5767 2.1872L8.49665 12.4464" stroke="white" stroke-width="2" stroke-linecap="round" stroke-linejoin="round"/>
</svg>
