<svg width="58" height="58" viewBox="0 0 58 58" fill="none" xmlns="http://www.w3.org/2000/svg">
<path fill-rule="evenodd" clip-rule="evenodd" d="M45.6573 4.43686C44.516 3.99705 43.2741 3.88655 42.0731 4.11796L41.3333 4.26049V8.67439C43.2645 8.30556 45.2608 8.48476 47.0957 9.19191C48.2347 9.63081 49.4717 9.74105 50.6667 9.51332V5.09119C49.0499 5.30281 47.4 5.10849 45.8683 4.51823L45.6573 4.43686ZM41.3333 12.748L42.0731 12.6054C43.2741 12.374 44.516 12.4845 45.6573 12.9243C47.6515 13.6928 49.8323 13.8364 51.9101 13.336L52.0877 13.2932C53.6005 12.9288 54.6667 11.5754 54.6667 10.0193V4.09529C54.6667 2.04377 52.748 0.532332 50.7533 1.01271C49.6083 1.28857 48.4061 1.20943 47.3067 0.785798L47.0957 0.704439C45.2552 -0.00476138 43.2528 -0.182948 41.3163 0.190225L40.02 0.439985C38.4603 0.740519 37.3333 2.10548 37.3333 3.69383V13.0249H15.3333C15.209 13.0249 15.0874 13.0362 14.9694 13.0579C14.6491 13.036 14.3258 13.0249 14 13.0249C6.268 13.0249 0 19.2929 0 27.025V41.0714C0 45.4639 3.56091 49.025 7.95349 49.025H22.6667V55.025C22.6667 56.1295 23.5621 57.025 24.6667 57.025C25.7712 57.025 26.6667 56.1295 26.6667 55.025V49.025H33.3333V55.025C33.3333 56.1295 34.2288 57.025 35.3333 57.025C36.4379 57.025 37.3333 56.1295 37.3333 55.025V49.025H49.4483C53.8029 49.025 57.3333 45.4946 57.3333 41.1399V27.025C57.3333 19.2929 51.0653 13.0249 43.3333 13.0249H41.3333V12.748ZM37.3333 17.0249V25.6916C37.3333 26.7962 38.2288 27.6916 39.3333 27.6916C40.4379 27.6916 41.3333 26.7962 41.3333 25.6916V17.0249H43.3333C48.8563 17.0249 53.3333 21.502 53.3333 27.025V41.1399C53.3333 43.2855 51.5939 45.025 49.4483 45.025H28V27.025C28 23.1074 26.3909 19.5659 23.7979 17.0249H37.3333ZM24 45.025V27.025C24 21.502 19.5229 17.0249 14 17.0249C8.47715 17.0249 4 21.502 4 27.025V41.0714C4 43.2548 5.77003 45.025 7.95349 45.025H24ZM8 39.025C8 37.9202 8.89544 37.025 10 37.025H18C19.1046 37.025 20 37.9202 20 39.025C20 40.1295 19.1046 41.025 18 41.025H10C8.89544 41.025 8 40.1295 8 39.025Z" fill="#0D5A50"/>
</svg>
