<svg width="18" height="20" viewBox="0 0 18 20" fill="none" xmlns="http://www.w3.org/2000/svg">
<path d="M8.90576 4.82031V7.87281" stroke="#4A4A4A" stroke-width="1.5" stroke-miterlimit="10" stroke-linecap="round"/>
<path d="M8.92423 0.75C5.55091 0.75 2.81925 3.48167 2.81925 6.855V8.78C2.81925 9.40333 2.56258 10.3383 2.24175 10.87L1.07758 12.8133C0.362579 14.0142 0.857579 15.3525 2.17758 15.7925C6.55925 17.25 11.2984 17.25 15.6801 15.7925C16.9176 15.38 17.4492 13.9317 16.7801 12.8133L15.6159 10.87C15.2951 10.3383 15.0384 9.39417 15.0384 8.78V6.855C15.0292 3.5 12.2792 0.75 8.92423 0.75Z" stroke="#4A4A4A" stroke-width="1.5" stroke-miterlimit="10" stroke-linecap="round"/>
<path d="M11.9585 16.168C11.9585 17.8455 10.5835 19.2205 8.90598 19.2205C8.07181 19.2205 7.30181 18.8721 6.75185 18.3221C6.20185 17.7721 5.85352 17.0021 5.85352 16.168" stroke="#4A4A4A" stroke-width="1.5" stroke-miterlimit="10"/>
</svg>
