<svg width="15" height="15" viewBox="0 0 15 15" fill="none" xmlns="http://www.w3.org/2000/svg">
<path fill-rule="evenodd" clip-rule="evenodd" d="M8.32957 15H6.67042C4.08553 15 2.79307 15 1.91177 14.2411C1.03047 13.4823 0.847685 12.212 0.482128 9.6714L0.27305 8.21842C-0.0115298 6.2406 -0.15382 5.25172 0.251525 4.40621C0.65687 3.5607 1.51964 3.04676 3.24518 2.01886L4.28381 1.40015C5.85078 0.466717 6.63427 0 7.5 0C8.36572 0 9.14925 0.466717 10.7161 1.40015L11.7548 2.01886C13.4803 3.04676 14.3431 3.5607 14.7484 4.40621C15.1538 5.25172 15.0115 6.2406 14.7269 8.21842L14.5179 9.6714C14.1523 12.212 13.9695 13.4823 13.0882 14.2411C12.2069 15 10.9144 15 8.32957 15ZM4.79817 10.1649C4.98317 9.9153 5.33546 9.86295 5.58503 10.048C6.13132 10.4528 6.79065 10.6873 7.50007 10.6873C8.2095 10.6873 8.86882 10.4528 9.41512 10.048C9.66472 9.86295 10.017 9.9153 10.2019 10.1649C10.387 10.4144 10.3346 10.7668 10.085 10.9517C9.35572 11.4923 8.46382 11.8123 7.50007 11.8123C6.53632 11.8123 5.64442 11.4923 4.91512 10.9517C4.66554 10.7668 4.61319 10.4144 4.79817 10.1649Z" fill="url(#paint0_linear_2130_108596)"/>
<defs>
<linearGradient id="paint0_linear_2130_108596" x1="7.5" y1="0" x2="7.5" y2="15" gradientUnits="userSpaceOnUse">
<stop stop-color="#0D5A50"/>
<stop offset="1" stop-color="#009772"/>
</linearGradient>
</defs>
</svg>
