<svg width="58" height="47" viewBox="0 0 58 47" fill="none" xmlns="http://www.w3.org/2000/svg">
<path d="M2 23.3333C2 13.2767 2 8.2484 5.12419 5.12419C8.2484 2 13.2767 2 23.3333 2H34C44.0565 2 49.0851 2 52.2091 5.12419C55.3333 8.2484 55.3333 13.2767 55.3333 23.3333C55.3333 33.3899 55.3333 38.4184 52.2091 41.5424C49.0851 44.6667 44.0565 44.6667 34 44.6667H23.3333C13.2767 44.6667 8.2484 44.6667 5.12419 41.5424C2 38.4184 2 33.3899 2 23.3333Z" stroke="#0D5A50" stroke-width="4"/>
<path d="M28.6671 18V28.6667M24.0474 20.6667L33.285 26M33.2845 20.6667L24.0469 26" stroke="#0D5A50" stroke-width="4" stroke-linecap="round"/>
<path d="M14.6204 18V28.6667M10.0006 20.6667L19.2382 26M19.2376 20.6667L10 26" stroke="#0D5A50" stroke-width="4" stroke-linecap="round"/>
<path d="M42.7143 18V28.6667M38.0943 20.6667L47.3319 26M47.3313 20.6667L38.0938 26" stroke="#0D5A50" stroke-width="4" stroke-linecap="round"/>
</svg>
