<svg width="24" height="29" viewBox="0 0 24 29" fill="none" xmlns="http://www.w3.org/2000/svg">
<g clip-path="url(#clip0_1770_42)">
<path d="M14.9343 25.6884C14.5061 26.7151 14.223 27.8292 14.1145 28.9977L23.1776 26.9147C23.6059 25.8883 23.8888 24.7739 23.9975 23.6055L14.9343 25.6884Z" fill="#0D5A50"/>
<path d="M23.1802 20.6769C23.6084 19.6504 23.8915 18.536 24 17.3676L16.9401 18.9909V15.8703L23.18 14.4366C23.6082 13.4102 23.8913 12.2958 23.9998 11.1274L16.9399 12.7493V1.52641C15.8581 2.1831 14.8974 3.05721 14.1164 4.08828V13.3984L11.2929 14.0472V0C10.2111 0.656452 9.25038 1.5308 8.46941 2.56187V14.6959L2.15183 16.1472C1.72356 17.1737 1.44025 18.2881 1.33158 19.4565L8.46941 17.8165V21.7465L0.819827 23.5039C0.391553 24.5304 0.108456 25.6448 0 26.8132L8.00697 24.9736C8.65878 24.827 9.21899 24.4104 9.58322 23.837L11.0516 21.4833V21.4829C11.2041 21.2394 11.2929 20.9458 11.2929 20.6295V17.1677L14.1164 16.5189V22.7602L23.18 20.6764L23.1802 20.6769Z" fill="#0D5A50"/>
</g>
<defs>
<clipPath id="clip0_1770_42">
<rect width="24" height="29" fill="white"/>
</clipPath>
</defs>
</svg>
