<svg width="14" height="15" viewBox="0 0 14 15" fill="none" xmlns="http://www.w3.org/2000/svg">
<path d="M6.38662 14.7445C6.60712 14.8623 6.88387 14.8615 7.10437 14.7438C13.1134 11.5158 13.5401 5.20904 13.5349 3.41579C13.5343 3.27166 13.4917 3.13082 13.4123 3.01053C13.3329 2.89024 13.2202 2.79572 13.0879 2.73853L7.05037 0.0640353C6.95429 0.0216824 6.85042 -0.000128583 6.74542 5.70247e-07C6.64041 0.000129724 6.5366 0.0221961 6.44062 0.0647852L0.445121 2.73929C0.314768 2.7965 0.203611 2.88998 0.124891 3.00859C0.0461717 3.1272 0.00320869 3.26594 0.00112061 3.40829C-0.0243794 5.19253 0.334871 11.5128 6.38662 14.7445ZM4.27612 6.14879L5.99587 7.86854L9.21562 4.64879L10.2761 5.70928L5.99587 9.98953L3.21562 7.20928L4.27612 6.14879Z" fill="white"/>
</svg>
