<svg width="55" height="58" viewBox="0 0 55 58" fill="none" xmlns="http://www.w3.org/2000/svg">
<path d="M26.5315 28.6667C33.8953 28.6667 39.8649 22.6971 39.8649 15.3333C39.8649 7.96955 33.8953 2 26.5315 2C19.1678 2 13.1982 7.96955 13.1982 15.3333C13.1982 22.6971 19.1678 28.6667 26.5315 28.6667Z" stroke="black" stroke-width="4" stroke-linecap="round" stroke-linejoin="round"/>
<path d="M51.5742 40.2657L38.0009 53.839C36.6409 55.1723 32.6675 55.8121 31.7342 54.9054C31.3798 53.8571 31.2939 52.7363 31.4849 51.6462C31.6761 50.5558 32.1377 49.5313 32.8275 48.6657L46.4009 35.0657C47.107 34.4702 48.011 34.1625 48.9339 34.2027C49.8566 34.243 50.7305 34.6286 51.3817 35.2835C52.0331 35.9382 52.4145 36.8142 52.4502 37.7371C52.4857 38.6601 52.1731 39.5625 51.5742 40.2657Z" stroke="black" stroke-width="4" stroke-linecap="round" stroke-linejoin="round"/>
<path d="M2.00049 55.3346C3.5215 50.0898 6.66169 45.4602 10.9722 42.1077C15.2826 38.7552 20.5428 36.8512 26.0005 36.668" stroke="black" stroke-width="4" stroke-linecap="round" stroke-linejoin="round"/>
</svg>
